<svg width="24" height="24" viewBox="0 0 24 24" fill="none" xmlns="http://www.w3.org/2000/svg">
<path d="M11.4379 5.25C12.3263 5.25 13.6879 4.242 13.6879 3C13.6879 1.75928 12.6786 0.75 11.4379 0.75C10.1971 0.75 9.18787 1.75928 9.18787 3C9.18787 4.242 10.5494 5.25 11.4379 5.25ZM11.4379 1.5C12.2651 1.5 12.9379 2.17291 12.9379 3C12.9379 3.80566 11.9319 4.5 11.4379 4.5C10.9438 4.5 9.93787 3.80566 9.93787 3C9.93787 2.17291 10.6106 1.5 11.4379 1.5Z" fill="#303030"/>
<path d="M21.4464 16.5264C18.2439 13.4729 17.4426 6.7747 17.4349 6.70732C17.4341 6.70013 17.4297 6.69453 17.4284 6.6875L19.9094 4.20464C20.25 3.85948 20.4375 3.40776 20.4375 2.93242C20.4375 2.45012 20.2493 1.99638 19.9076 1.65489C19.2048 0.951767 18.0597 0.951218 17.3562 1.65471L13.007 5.99998H8.72241C8.18372 5.99998 7.68311 6.26677 7.38428 6.71245L5.08191 10.1193C4.63916 10.6866 4.56189 11.4084 4.87537 12.0498C4.9371 12.1763 5.01501 12.2903 5.10029 12.3974C4.42163 14.1697 3.56616 15.5607 2.55359 16.5264C2.46533 16.6106 2.42359 16.7325 2.44153 16.8534C2.45984 16.9739 2.53565 17.0782 2.64478 17.1332C4.0719 17.8476 5.64075 18.0022 6.73279 18.0022C7.12107 18.0022 7.44763 17.9826 7.6875 17.9618V21.8661C7.6875 22.6293 8.30823 23.25 9.07141 23.25H9.33765C9.95142 23.25 10.4978 22.8373 10.6655 22.2469L11.9502 17.7576L12.8621 19.1254L11.9008 20.5701C11.7448 20.7967 11.6624 21.0637 11.6624 21.3413C11.6624 21.6412 11.7583 21.9276 11.9396 22.1693C12.1809 22.4919 12.5497 22.693 12.9518 22.7208C13.3543 22.7464 13.7432 22.6018 14.0241 22.3187L15.939 20.4038C16.4345 19.9131 16.6128 19.1935 16.4048 18.5273L16.2285 17.9539C16.4731 17.9775 16.8297 18.0022 17.2672 18.0022C18.3593 18.0022 19.9285 17.8473 21.3552 17.1332C21.4647 17.0782 21.5402 16.9739 21.5585 16.8534C21.5764 16.7325 21.5347 16.6106 21.4464 16.5264ZM17.8865 2.18517C18.2974 1.77409 18.9664 1.77428 19.3773 2.18535C19.5773 2.38512 19.6875 2.65044 19.6875 2.93242C19.6875 3.20927 19.5765 3.47386 19.3773 3.67601L15.1875 7.86913V7.12498C15.1875 7.04762 15.1796 6.97205 15.1647 6.89903C15.1569 6.86111 15.1422 6.82607 15.1307 6.78963C15.1201 6.75587 15.1129 6.72064 15.0992 6.68835C15.0826 6.64889 15.0594 6.6133 15.0385 6.57629C15.0239 6.55029 15.0124 6.52229 14.9958 6.49762C14.9724 6.46297 14.9434 6.43289 14.9165 6.40112C14.8969 6.37803 14.88 6.35255 14.8587 6.33113C14.8315 6.30385 14.7997 6.28176 14.7698 6.25736C14.7439 6.23621 14.7203 6.21241 14.6925 6.19357C14.6629 6.17348 14.6296 6.15906 14.598 6.14178C14.566 6.12424 14.5357 6.10397 14.5019 6.08955C14.4707 6.07625 14.4366 6.06913 14.404 6.05865C14.3666 6.04661 14.3303 6.03171 14.2913 6.02361C14.2586 6.01683 14.2239 6.01676 14.1902 6.01289C14.1497 6.00822 14.1101 6.00019 14.0684 5.99998L17.8865 2.18517ZM5.68799 10.56L8.00611 7.13139C8.16651 6.89262 8.43421 6.74998 8.72241 6.74998H13.1624H14.0625C14.2694 6.74998 14.4375 6.91826 14.4375 7.12498V8.77495V14.25H8.4375V13.125H9.35633C10.2166 13.125 10.983 12.5672 11.2196 11.7693L11.3921 11.1879C11.4917 10.8515 11.428 10.4965 11.217 10.2138C10.997 9.91899 10.6564 9.74998 10.2825 9.74998H8.0625C7.85523 9.74998 7.6875 9.91789 7.6875 10.125C7.6875 10.3321 7.85523 10.5 8.0625 10.5H10.2825C10.4172 10.5 10.5388 10.5591 10.6157 10.6622C10.656 10.7159 10.7164 10.8277 10.6729 10.9744L10.5004 11.556C10.3575 12.0383 9.88697 12.375 9.35633 12.375H8.0625H6.62989C6.1604 12.375 5.74622 12.1243 5.5492 11.7207C5.36463 11.3428 5.41113 10.9167 5.68799 10.56ZM3.4563 16.6758C4.33791 15.7141 5.09242 14.4447 5.70946 12.8985C5.98604 13.0424 6.29858 13.125 6.62989 13.125H7.6875V14.625V17.2071C6.97103 17.2732 5.14433 17.3518 3.4563 16.6758ZM15.4098 19.8724L13.4927 21.7895C13.3645 21.9184 13.1913 21.988 13.0038 21.9726C12.8196 21.9598 12.6508 21.8679 12.5398 21.72C12.4563 21.6086 12.4124 21.4775 12.4124 21.3413C12.4124 21.216 12.4493 21.0963 12.5222 20.9901L13.6249 19.3326C13.7084 19.2066 13.7084 19.043 13.6245 18.917L12.1245 16.667C12.0436 16.5454 11.9 16.482 11.7546 16.5044C11.6104 16.5271 11.4921 16.6315 11.4522 16.7717L9.94446 22.0411C9.86646 22.3154 9.62256 22.5 9.33765 22.5H9.07141C8.72205 22.5 8.4375 22.2154 8.4375 21.8661V15H14.5354L15.6885 18.7493C15.813 19.1484 15.7068 19.5784 15.4098 19.8724ZM15.9954 17.1712C15.9928 17.1709 15.9905 17.172 15.9879 17.1716L15.1875 14.5684V8.93013L16.767 7.3494C17.0204 8.99573 17.9601 13.851 20.5437 16.6758C18.4039 17.5309 16.021 17.1753 15.9954 17.1712Z" fill="#303030"/>
</svg>
