<svg width="24" height="24" viewBox="0 0 24 24" fill="none" xmlns="http://www.w3.org/2000/svg">
<g clip-path="url(#clip0_1_575)">
<path d="M1.317 24C1.16213 23.9995 1.01836 23.92 0.935632 23.7891C0.853154 23.6582 0.843065 23.4943 0.909401 23.3543L5.74107 13.2498H0.947991C0.793124 13.2498 0.649102 13.1703 0.566371 13.0394C0.48364 12.9083 0.473803 12.7441 0.540392 12.6041L6.42739 0.258281C6.50204 0.100639 6.6607 0 6.83524 0H13.8994C14.0585 0 14.2061 0.0837396 14.2876 0.220447C14.3693 0.357154 14.3728 0.526904 14.2971 0.66689L9.356 9.81519H13.9609C14.142 9.81494 14.306 9.92264 14.3773 10.0894C14.4487 10.2561 14.4134 10.449 14.2881 10.5799L1.64389 23.8597C1.55863 23.9493 1.44059 24 1.317 24ZM1.66457 12.3458H6.45816C6.61302 12.3463 6.75705 12.4257 6.83978 12.5567C6.92226 12.6876 6.93234 12.8515 6.86601 12.9915L2.95371 21.1733L12.9066 10.7192H8.5978C8.43865 10.7192 8.2911 10.6354 8.20963 10.4987C8.1279 10.362 8.12437 10.1923 8.20004 10.0523L13.1417 0.904993H7.1195L1.66457 12.3458ZM14.9032 22.8029C14.7486 22.8024 14.6046 22.7229 14.5221 22.592C14.4394 22.4611 14.4296 22.2972 14.4956 22.1572L17.483 15.9093H14.6677C14.5108 15.9095 14.365 15.8285 14.2825 15.6951C14.2 15.5617 14.1925 15.3952 14.2626 15.255L18.2231 7.33857C18.2995 7.18546 18.4561 7.08886 18.6271 7.08886H23.1571C23.3183 7.08886 23.4671 7.17437 23.5481 7.31359C23.6291 7.45282 23.6298 7.62459 23.5501 7.76433L20.3498 13.3827H23.0103C23.1912 13.3824 23.3546 13.4901 23.4258 13.6564C23.4971 13.8226 23.4626 14.0153 23.3377 14.1464L15.2296 22.6627C15.1444 22.7519 15.0263 22.8026 14.903 22.8029H14.9032ZM15.3984 15.0053H18.1999C18.3545 15.0058 18.4985 15.0852 18.5812 15.2161C18.6637 15.347 18.6738 15.511 18.6075 15.651L16.5399 19.9762L21.957 14.2867H19.5722C19.4113 14.2867 19.2622 14.2009 19.1815 14.0617C19.1006 13.9225 19.0998 13.7507 19.1795 13.611L22.3795 7.9931H18.9063L15.3984 15.0053Z" fill="#6A61F1"/>
</g>
<defs>
<clipPath id="clip0_1_575">
<rect width="24" height="24" fill="white"/>
</clipPath>
</defs>
</svg>
