<svg width="24" height="24" viewBox="0 0 24 24" fill="none" xmlns="http://www.w3.org/2000/svg">
<path d="M20.8262 4.59233C20.8156 4.57751 20.8041 4.56322 20.7908 4.54995C20.7775 4.53664 20.7632 4.52506 20.7484 4.51456C19.0312 2.81694 16.6723 1.76703 14.0726 1.76703C11.5047 1.76703 9.12025 2.80475 7.38151 4.52576C7.37214 4.53326 7.36304 4.54128 7.35432 4.54995C7.34603 4.55825 7.33829 4.56692 7.33107 4.57587C6.22651 5.68559 5.38853 7.07379 4.93792 8.6479C3.86682 9.31869 3.15259 10.5087 3.15259 11.863C3.15259 13.3287 3.98912 14.6018 5.20923 15.2326C2.44989 15.9943 0.41748 18.5264 0.41748 21.5247C0.41748 21.7059 0.564387 21.8528 0.745605 21.8528H13.1424C13.3236 21.8528 13.4705 21.7059 13.4705 21.5247C13.4705 18.5265 11.4382 15.9944 8.67887 15.2327C9.89907 14.6019 10.7356 13.3287 10.7356 11.863C10.7356 11.0675 10.4888 10.3287 10.0685 9.71834C10.7056 8.07111 12.2941 6.97573 14.0725 6.97573C14.4712 6.97573 14.8626 7.03001 15.2408 7.13684L13.6586 10.1599C13.1559 10.2897 12.7329 10.6512 12.5312 11.1348C12.1767 11.9847 12.5796 12.9645 13.4295 13.3191C13.6367 13.4056 13.8546 13.4488 14.0725 13.4488C14.2876 13.4488 14.5028 13.4067 14.7077 13.3224C15.1203 13.1527 15.4421 12.8326 15.6139 12.4209C15.8153 11.9382 15.7752 11.3844 15.5149 10.9362L16.567 7.77504C17.685 8.57604 18.3649 9.87997 18.3649 11.2682C18.3649 11.4494 18.5118 11.5963 18.6931 11.5963H23.2456C23.4268 11.5963 23.5737 11.4494 23.5737 11.2682C23.5737 8.66848 22.5238 6.30959 20.8262 4.59237L20.8262 4.59233ZM10.2533 8.12037C10.2395 8.13701 10.2259 8.15375 10.2124 8.17058C10.187 8.20217 10.1621 8.23409 10.1375 8.26629C10.124 8.28387 10.1107 8.30154 10.0974 8.31931C10.0735 8.35156 10.0501 8.38419 10.0269 8.41704C10.0139 8.43547 10.0009 8.45384 9.98818 8.47245C9.96559 8.50545 9.94351 8.53892 9.92171 8.57253C9.90929 8.59161 9.89682 8.61064 9.88464 8.62995C9.86326 8.66384 9.84254 8.69825 9.82196 8.73275C9.81025 8.75239 9.79839 8.77189 9.78695 8.79167C9.76665 8.82678 9.7471 8.8624 9.72765 8.89808C9.71687 8.91786 9.70585 8.93745 9.69531 8.95737C9.67585 8.99422 9.65725 9.03158 9.63873 9.06903C9.62912 9.08844 9.61918 9.10761 9.60981 9.12715C9.60512 9.1369 9.60043 9.14665 9.59579 9.15645C8.91156 8.48595 7.97551 8.07148 6.94412 8.07148C6.52712 8.07148 6.12611 8.14015 5.75054 8.26508C5.75223 8.26034 5.75382 8.25556 5.75556 8.25087C5.76718 8.21876 5.77932 8.18689 5.79132 8.15497C5.80056 8.13036 5.80961 8.10565 5.81907 8.08118C5.83117 8.04987 5.84368 8.01884 5.85611 7.98772C5.86604 7.96287 5.87579 7.93794 5.88592 7.91323C5.89853 7.88248 5.91156 7.85197 5.9245 7.8214C5.93495 7.7967 5.94526 7.77195 5.9559 7.74739C5.96903 7.71715 5.98257 7.68715 5.99598 7.65706C6.00704 7.63236 6.01796 7.60761 6.02921 7.58304C6.04281 7.55342 6.05678 7.52398 6.07065 7.49454C6.08228 7.46998 6.09376 7.44533 6.10557 7.4209C6.11973 7.39161 6.13421 7.36259 6.1487 7.33348C6.16079 7.30915 6.17284 7.28478 6.18512 7.26064C6.19975 7.23186 6.21475 7.20326 6.2297 7.17467C6.24236 7.15048 6.25496 7.12629 6.26781 7.10225C6.2829 7.07398 6.29832 7.04595 6.3137 7.01792C6.32692 6.99387 6.34009 6.96978 6.3535 6.94587C6.36911 6.91808 6.38495 6.89047 6.40084 6.8629C6.41453 6.83914 6.42822 6.81533 6.44214 6.7917C6.45821 6.76433 6.47457 6.73714 6.49093 6.70995C6.50514 6.68642 6.51934 6.66284 6.53378 6.63945C6.55028 6.61264 6.56701 6.58597 6.58379 6.55934C6.59861 6.53586 6.61342 6.51242 6.62842 6.48912C6.64534 6.46287 6.6624 6.43676 6.67956 6.41075C6.69489 6.3875 6.71026 6.36434 6.72578 6.34123C6.74312 6.31545 6.76065 6.28976 6.77828 6.26417C6.79412 6.24115 6.81006 6.21818 6.82609 6.19531C6.84386 6.17004 6.86171 6.14492 6.87971 6.11984C6.89607 6.09701 6.91257 6.07433 6.92917 6.05169C6.94731 6.02694 6.96554 6.00228 6.98392 5.97772C7.00084 5.95512 7.0179 5.93258 7.03501 5.91017C7.05353 5.88598 7.07209 5.86184 7.09079 5.83789C7.10823 5.81553 7.12586 5.79326 7.14353 5.77104C7.16237 5.74737 7.18126 5.72375 7.20034 5.70031C7.21839 5.67809 7.23657 5.65606 7.25486 5.63403C7.27398 5.61097 7.29315 5.58795 7.31251 5.56508C7.33112 5.54309 7.34987 5.52125 7.36871 5.4995C7.38817 5.47695 7.40767 5.45445 7.42731 5.43214C7.44643 5.41044 7.46579 5.38887 7.48511 5.36736C7.50489 5.34537 7.52467 5.32334 7.54464 5.30154C7.56015 5.28462 7.5759 5.26789 7.59151 5.25111L10.3484 8.00797C10.3431 8.01392 10.3382 8.02015 10.333 8.02615C10.306 8.05719 10.2795 8.08859 10.2533 8.12037ZM8.16756 4.68589C8.1909 4.66503 8.21443 4.64445 8.23796 4.62387C8.25831 4.60606 8.27851 4.58811 8.299 4.57048C8.32337 4.54953 8.34798 4.5289 8.37259 4.50823C8.3927 4.49131 8.41267 4.47425 8.43292 4.45751C8.45828 4.43656 8.48392 4.41598 8.50946 4.39531C8.52929 4.37928 8.54903 4.36306 8.56895 4.34722C8.5959 4.32579 8.62318 4.30479 8.65042 4.2837C8.66931 4.26908 8.68806 4.25422 8.70704 4.23973C8.73653 4.21728 8.76634 4.1952 8.7961 4.17312C8.81321 4.16042 8.83014 4.14748 8.84734 4.13492C8.8809 4.11036 8.91479 4.08626 8.94868 4.06222C8.96242 4.05247 8.97601 4.04243 8.98979 4.03278C9.03695 3.99964 9.08443 3.96701 9.13225 3.93481C9.1329 3.93439 9.13351 3.93392 9.13417 3.9335C9.18315 3.90054 9.23246 3.86806 9.28206 3.83604C9.28698 3.8329 9.29195 3.82986 9.29687 3.82672C9.34121 3.79826 9.38575 3.77009 9.4306 3.74239C9.44378 3.73428 9.45714 3.7264 9.47036 3.71834C9.50706 3.69594 9.54381 3.67358 9.58089 3.65169C9.59767 3.64179 9.61468 3.63219 9.63156 3.62239C9.66531 3.60275 9.69906 3.58311 9.73314 3.56389C9.7517 3.55339 9.7705 3.54326 9.78915 3.5329C9.82173 3.51486 9.85426 3.49672 9.88707 3.47904C9.90695 3.46836 9.92706 3.458 9.94703 3.4474C9.97886 3.43058 10.0107 3.4137 10.0427 3.39725C10.0637 3.38651 10.0847 3.37615 10.1057 3.36561C10.1372 3.34981 10.1686 3.33392 10.2002 3.3185C10.2217 3.308 10.2434 3.29783 10.265 3.28747C10.2964 3.27247 10.3277 3.25742 10.3593 3.24275C10.3815 3.23248 10.4037 3.22254 10.4259 3.21247C10.4572 3.19826 10.4884 3.18411 10.5199 3.17028C10.5427 3.16025 10.5656 3.15054 10.5884 3.1407C10.6196 3.12729 10.6508 3.11389 10.6822 3.10081C10.7054 3.09115 10.7287 3.08178 10.752 3.07231C10.7832 3.05961 10.8145 3.0469 10.846 3.03458C10.8697 3.02529 10.8934 3.01625 10.9172 3.00715C10.9484 2.9952 10.9797 2.98325 11.0111 2.97162C11.0353 2.96267 11.0597 2.95395 11.0839 2.94519C11.1152 2.93394 11.1464 2.92273 11.1777 2.91186C11.2023 2.90333 11.227 2.89498 11.2517 2.88664C11.283 2.87604 11.3143 2.86559 11.3458 2.85537C11.3707 2.84726 11.3957 2.83934 11.4207 2.83147C11.4521 2.82158 11.4836 2.81178 11.5151 2.80222C11.5404 2.79453 11.5659 2.78703 11.5913 2.77958C11.6227 2.77034 11.6542 2.76129 11.6857 2.75239C11.7114 2.74517 11.7372 2.73809 11.7631 2.73106C11.7945 2.72253 11.826 2.71414 11.8576 2.70594C11.8837 2.69919 11.9098 2.69258 11.9359 2.68601C11.9675 2.67814 11.9991 2.6704 12.0307 2.6629C12.0572 2.65662 12.0836 2.65044 12.1101 2.64439C12.1417 2.63717 12.1733 2.63019 12.2049 2.62334C12.2316 2.61753 12.2584 2.61186 12.2852 2.60633C12.3169 2.59976 12.3486 2.59344 12.3804 2.58725C12.4074 2.58195 12.4344 2.57675 12.4615 2.57173C12.4932 2.56587 12.5249 2.5602 12.5567 2.55467C12.5841 2.54989 12.6115 2.54515 12.639 2.54065C12.6706 2.53545 12.7023 2.53053 12.734 2.52565C12.7618 2.52139 12.7896 2.51717 12.8174 2.51314C12.849 2.50859 12.8807 2.50437 12.9123 2.50015C12.9404 2.49645 12.9685 2.4927 12.9967 2.48923C13.0283 2.48534 13.0599 2.48183 13.0915 2.47826C13.12 2.47508 13.1485 2.47189 13.177 2.46898C13.2085 2.46579 13.24 2.46289 13.2716 2.46003C13.3004 2.4574 13.3292 2.45473 13.358 2.45244C13.3895 2.4499 13.421 2.4477 13.4525 2.4455C13.4817 2.44344 13.5108 2.44133 13.54 2.43959C13.5713 2.43772 13.6026 2.43622 13.6339 2.43467C13.6636 2.43322 13.6931 2.43162 13.7228 2.43045C13.73 2.43017 13.7372 2.43003 13.7443 2.42979V6.32994C13.7261 6.33115 13.7081 6.33317 13.6899 6.33458C13.6798 6.33537 13.6697 6.33631 13.6596 6.33715C13.6057 6.34165 13.552 6.3469 13.4986 6.35314C13.4874 6.35445 13.4762 6.35586 13.4651 6.35726C13.4127 6.36373 13.3606 6.37095 13.3087 6.37901C13.297 6.38084 13.2854 6.38276 13.2737 6.38464C13.2224 6.39303 13.1713 6.40217 13.1204 6.41211C13.1087 6.4144 13.0969 6.41675 13.0851 6.41914C13.0344 6.42945 12.984 6.44056 12.9338 6.45242C12.9223 6.45514 12.9108 6.45781 12.8994 6.46058C12.8488 6.4729 12.7986 6.48608 12.7486 6.49995C12.7379 6.50295 12.7271 6.50581 12.7164 6.50886C12.6655 6.52334 12.6151 6.53872 12.5649 6.55479C12.5553 6.55784 12.5457 6.56075 12.5362 6.56389C12.4845 6.58081 12.4332 6.59862 12.3821 6.61719C12.3744 6.62 12.3667 6.62262 12.359 6.62548C12.3054 6.64526 12.2522 6.66603 12.1994 6.68764C12.1945 6.68961 12.1896 6.69148 12.1848 6.69345C12.1274 6.71717 12.0704 6.74183 12.014 6.76765L12.0138 6.76775C11.7264 6.89928 11.4527 7.05772 11.1964 7.24058C11.1957 7.24109 11.1951 7.24161 11.1944 7.24212C11.1451 7.27733 11.0965 7.31347 11.0485 7.35045C11.0416 7.35584 11.0348 7.36147 11.0278 7.3669C10.9863 7.39925 10.9452 7.43215 10.9047 7.46581C10.8945 7.47429 10.8845 7.48311 10.8744 7.49169C10.8537 7.50917 10.8329 7.52656 10.8125 7.54442L8.0559 4.78784C8.0725 4.77247 8.08918 4.75723 8.10592 4.742C8.1264 4.72334 8.14675 4.70454 8.16742 4.68608L8.16756 4.68589ZM12.8052 21.1966H1.08278C1.2534 18.1129 3.81517 15.6564 6.94042 15.6545C6.94164 15.6545 6.94286 15.6546 6.94407 15.6546C6.94529 15.6546 6.94646 15.6545 6.94768 15.6545C10.0728 15.6565 12.6346 18.1129 12.8052 21.1966H12.8052ZM6.94768 14.9982C6.94646 14.9982 6.94525 14.9982 6.94403 14.9982C6.94286 14.9982 6.94168 14.9982 6.94046 14.9982C5.21336 14.9963 3.80884 13.5906 3.80884 11.8631C3.80884 10.1355 5.21532 8.72778 6.94412 8.72778C8.67292 8.72778 10.0794 10.1343 10.0794 11.8631C10.0794 13.5919 8.67484 14.9963 6.94768 14.9982ZM14.8424 10.8789C14.8088 10.9799 14.8262 11.0909 14.8892 11.1767C15.1019 11.4665 15.1464 11.8371 15.0083 12.1682C14.904 12.4181 14.7086 12.6125 14.4582 12.7155C14.2078 12.8185 13.9322 12.8179 13.6822 12.7136C13.1663 12.4983 12.9216 11.9034 13.1369 11.3875C13.275 11.0564 13.5698 10.8273 13.9253 10.7746C14.029 10.7592 14.1192 10.6952 14.1679 10.6022L16.004 7.09386C16.004 7.09386 16.0041 7.09372 16.0042 7.09362L16.2733 6.57936L16.0787 7.16436C16.0784 7.16515 16.0781 7.16595 16.0779 7.16675L14.8424 10.879L14.8424 10.8789ZM17.161 4.47912C16.9051 4.37234 16.607 4.51676 16.4542 4.8185L15.5505 6.54523C15.1775 6.42851 14.7927 6.35712 14.4007 6.33148V2.42998C16.5923 2.51033 18.5828 3.39144 20.0875 4.78929L17.3313 7.5454C17.1594 7.39437 16.9762 7.25459 16.7825 7.12747L17.4149 5.22744C17.5276 4.90793 17.419 4.58679 17.161 4.47912ZM19.0102 10.9401C18.937 9.84917 18.5013 8.82031 17.7945 8.01031L20.5513 5.2535C21.9492 6.75818 22.8311 8.74845 22.9114 10.9401H19.0102H19.0102Z" fill="#303030"/>
</svg>
